<?xml version="1.0" encoding="UTF-8" standalone="no"?>
<svg
   version="1.1"
   id="svg2"
   width="83.398193"
   height="83.397949"
   sodipodi:docname="bullseye-symbolic.svg"
   inkscape:version="1.4.2 (ebf0e940d0, 2025-05-08)"
   xmlns:inkscape="http://www.inkscape.org/namespaces/inkscape"
   xmlns:sodipodi="http://sodipodi.sourceforge.net/DTD/sodipodi-0.dtd"
   xmlns="http://www.w3.org/2000/svg"
   xmlns:svg="http://www.w3.org/2000/svg">
  <sodipodi:namedview
     id="namedview1"
     pagecolor="#ffffff"
     bordercolor="#000000"
     borderopacity="0.25"
     inkscape:showpageshadow="2"
     inkscape:pageopacity="0.0"
     inkscape:pagecheckerboard="0"
     inkscape:deskcolor="#d1d1d1"
     inkscape:zoom="13.909215"
     inkscape:cx="41.698975"
     inkscape:cy="41.698975"
     inkscape:window-width="1130"
     inkscape:window-height="1269"
     inkscape:window-x="26"
     inkscape:window-y="23"
     inkscape:window-maximized="0"
     inkscape:current-layer="svg2" />
  <defs
     id="defs2" />
  <path
     d="m 83.39788,41.698942 c 0,23 -18.699,41.699 -41.699,41.699 -23,0 -41.69899992188,-18.699 -41.69899992188,-41.699 0,-23 18.69899992188,-41.6989998125 41.69899992188,-41.6989998125 1.6016,0 3.1016,0.1015000025 4.6016,0.3007000025 2.3008,0.3008 3.8984,2.30080001 3.6992,4.60160001 -0.3008,2.3008 -2.3008,4 -4.6016,3.6992 -1.1992,-0.1015 -2.5,-0.1992 -3.6992,-0.1992 -18.398,0 -33.3009999,14.9999998 -33.3009999,33.3009998 0,18.301 14.9999999,33.301 33.3009999,33.301 18.301,0 33.301,-15 33.301,-33.301 0,-1.3008 -0.1016,-2.5 -0.1992,-3.6992 -0.3008,-2.3008 1.3984,-4.3008 3.6992,-4.6016 2.3008,-0.1992 4.3008,1.3984 4.6016,3.6992 0.1992,1.4961 0.2968,2.9961 0.2968,4.5977 z m -39.598,-8 c -0.6992,-0.1993 -1.3984,-0.3008 -2.1016,-0.3008 -4.6016,0 -8.3008,3.6992 -8.3008,8.3008 0,4.6016 3.6992,8.3008 8.3008,8.3008 4.6016,0 8.3008,-3.6992 8.3008,-8.3008 0,-0.6992 -0.1016,-1.3984 -0.3008,-2.1016 l 6.1992,-6.1992 h 10.801 c 1.1016,0 2.1992,-0.3985 2.8984,-1.1992 l 12.5,-12.5 c 1.1992,-1.1992 1.6016,-3 0.8984,-4.5 -0.6015,-1.6016 -2.1992,-2.6016 -3.8008,-2.6016 h -8.3008 V 4.2965422 c 0,-1.6992 -1,-3.1992 -2.6016,-3.80080001 -1.5938,-0.7969 -3.3945,-0.3985 -4.4922,0.80470001 l -12.5,12.4999998 c -0.8007,0.8007 -1.1992,1.8008 -1.1992,2.8984 v 10.801 z m -5.4023,-8.3008 c 2.3008,-0.5 3.6992,-2.6992 3.3008,-4.8984 -0.3984,-2.1992 -2.6992,-3.8008 -5,-3.3008 -11.602,2.3984 -20,12.699 -20,24.5 0,13.801 11.199,25 25,25 11.801,0 22.102,-8.3984 24.5,-20 0.5,-2.3008 -1,-4.5 -3.3008,-4.8984 -2.1992,-0.3985 -4.5,1 -4.8984,3.3008 -1.6016,7.6992 -8.3984,13.301 -16.301,13.301 -9.1992,0 -16.699,-7.5 -16.699,-16.699 0,-7.9023 5.5977,-14.805 13.398,-16.305 z"
     id="path1"
     style="fill-opacity:1;fill:#2e3436" />
</svg>
