<?xml version="1.0" encoding="UTF-8" standalone="no"?>
<svg
   version="1.0"
   x="0px"
   y="0px"
   viewBox="0 0 81.800049 57"
   enable-background="new 0 0 100 100"
   xml:space="preserve"
   id="svg6"
   width="81.800049"
   height="57"
   xmlns="http://www.w3.org/2000/svg"
   xmlns:svg="http://www.w3.org/2000/svg"><defs
     id="defs6" /><path
     d="m 25.099935,40.900015 c -8.1,0 -14.7,-6.6 -14.7,-14.7 0,-8.1 6.6,-14.7 14.7,-14.7 8.1,0 14.6,6.7 14.6,14.7 0,8 -6.6,14.7 -14.6,14.7 z m 0,-23.2 c -4.7,0 -8.5,3.8 -8.5,8.5 0,4.7 3.8,8.5 8.5,8.5 4.7,0 8.5,-3.8 8.5,-8.5 0,-4.7 -3.8,-8.5 -8.5,-8.5 z"
     id="path1" /><g
     id="g2"
     transform="translate(-8.8000652,-29.799985)"><path
       d="M 77.3,49.7 H 57 c -1.6,0 -2.9,-1.3 -2.9,-2.9 0,-1.6 1.3,-2.9 2.9,-2.9 h 20.3 c 1.6,0 2.9,1.3 2.9,2.9 0,1.6 -1.3,2.9 -2.9,2.9 z"
       id="path2" /></g><g
     id="g3"
     transform="translate(-8.8000652,-29.799985)"><path
       d="M 77.3,58.9 H 57 c -1.6,0 -2.9,-1.3 -2.9,-2.9 0,-1.6 1.3,-2.9 2.9,-2.9 h 20.3 c 1.6,0 2.9,1.3 2.9,2.9 0,1.6 -1.3,2.9 -2.9,2.9 z"
       id="path3" /></g><g
     id="g4"
     transform="translate(-8.8000652,-29.799985)"><path
       d="M 77.3,68.1 H 57 c -1.6,0 -2.9,-1.3 -2.9,-2.9 0,-1.6 1.3,-2.9 2.9,-2.9 h 20.3 c 1.6,0 2.9,1.3 2.9,2.9 0,1.6 -1.3,2.9 -2.9,2.9 z"
       id="path4" /></g><path
     d="M 71.799935,1.4648438e-5 H 9.8999348 c -5.5,0 -9.899999998409,4.499999951562 -9.899999998409,9.899999951562 V 42.500015 c 0,4.5 2.999999998409,8.3 6.999999998409,9.5 v 2.1 c 0,1.6 1.3,2.9 2.9,2.9 1.6000002,0 2.9000002,-1.3 2.9000002,-2.9 v -1.7 h 56.2 v 1.7 c 0,1.6 1.3,2.9 2.9,2.9 1.6,0 2.9,-1.3 2.9,-2.9 v -2.1 c 4,-1.3 7,-5 7,-9.5 v -32.5 c -0.1,-5.5000004 -4.6,-10.000000351562 -10,-10.000000351562 z m 3.9,42.500000351562 c 0,2.1 -1.7,3.9 -3.9,3.9 H 9.8999348 c -2.1,0 -3.9,-1.7 -3.9,-3.9 v -32.5 c 0,-2.1000004 1.7,-3.9000004 3.9,-3.9000004 H 71.799935 c 2.1,0 3.9,1.7 3.9,3.9000004 z"
     id="path5"
     style="display:inline" /></svg>
