<?xml version="1.0" encoding="UTF-8"?>
<svg height="128px" viewBox="0 0 128 128" width="128px" xmlns="http://www.w3.org/2000/svg" xmlns:xlink="http://www.w3.org/1999/xlink">
    <linearGradient id="a" gradientTransform="matrix(0.604232 0 0 0.60423 111.979149 111.510559)" gradientUnits="userSpaceOnUse" x1="-77.750008" x2="-77.750008" y1="-2.499999" y2="-167.999985">
        <stop offset="0.532806" stop-color="#f6d32d"/>
        <stop offset="1" stop-color="#c64600"/>
    </linearGradient>
    <linearGradient id="b" gradientUnits="userSpaceOnUse">
        <stop offset="0" stop-color="#2ec27e"/>
        <stop offset="1" stop-color="#c64600"/>
    </linearGradient>
    <linearGradient id="c" gradientTransform="matrix(0.344796 0 0 0.398137 -14.9421 -37.237758)" x1="251.839722" x2="153.687012" xlink:href="#b" y1="197.599854" y2="197.599854"/>
    <linearGradient id="d" gradientTransform="matrix(0.344796 0 0 0.398137 6.015213 -30.126758)" x1="251.842453" x2="153.685318" xlink:href="#b" y1="197.598572" y2="197.598572"/>
    <linearGradient id="e" gradientTransform="matrix(0.222985 0 0 0.138143 -4.684476 182.279771)" gradientUnits="userSpaceOnUse" x1="88.595886" x2="536.595886" y1="-449.394012" y2="-449.394012">
        <stop offset="0"/>
        <stop offset="0.0357143" stop-color="#241f31"/>
        <stop offset="0.0713653"/>
        <stop offset="0.928571"/>
        <stop offset="0.964286" stop-color="#241f31"/>
        <stop offset="1"/>
    </linearGradient>
    <linearGradient id="f" gradientUnits="userSpaceOnUse" x1="92.66985029194" x2="112.64930718388" y1="103.8221400209" y2="103.8221400209">
        <stop offset="0.4"/>
        <stop offset="0.5" stop-color="#241f31"/>
        <stop offset="0.6"/>
    </linearGradient>
    <path d="m 65 10 c -3.042969 0 -6.066406 0.277344 -9.03125 0.824219 h 18.0625 c -2.964844 -0.546875 -5.988281 -0.824219 -9.03125 -0.824219 z m -11.421875 1.324219 c -1.609375 0.375 -3.199219 0.832031 -4.765625 1.371093 h 32.375 c -1.5625 -0.539062 -3.152344 -0.996093 -4.761719 -1.371093 z m -6.15625 1.871093 c -1.113281 0.417969 -2.214844 0.875 -3.296875 1.371094 h 41.75 c -1.082031 -0.496094 -2.179688 -0.953125 -3.292969 -1.371094 z m -4.355469 1.871094 c -0.890625 0.433594 -1.765625 0.894532 -2.632812 1.382813 h 49.132812 c -0.867187 -0.488281 -1.746094 -0.949219 -2.632812 -1.382813 z m -3.675781 1.988282 c -0.742187 0.445312 -1.472656 0.90625 -2.191406 1.390624 h 55.601562 c -0.71875 -0.484374 -1.449219 -0.945312 -2.191406 -1.390624 z m -3.074219 1.992187 c -0.640625 0.449219 -1.265625 0.910156 -1.882812 1.386719 h 61.132812 c -0.617187 -0.476563 -1.242187 -0.9375 -1.878906 -1.386719 z m -2.652344 1.992187 c -0.558593 0.449219 -1.109374 0.914063 -1.648437 1.386719 h 65.972656 c -0.539062 -0.472656 -1.09375 -0.9375 -1.652343 -1.386719 z m -2.324218 1.992188 c -0.5 0.449219 -0.988282 0.914062 -1.464844 1.386719 h 70.25 c -0.476562 -0.472657 -0.964844 -0.9375 -1.464844 -1.386719 z m -2.066406 1.988281 c -0.445313 0.457031 -0.882813 0.917969 -1.308594 1.390625 h 74.070312 c -0.425781 -0.472656 -0.863281 -0.933594 -1.304687 -1.390625 z m -1.847657 1.992188 c -0.398437 0.457031 -0.789062 0.917969 -1.175781 1.386719 h 77.5 c -0.386719 -0.46875 -0.777344 -0.929688 -1.175781 -1.386719 z m -1.660156 1.996093 c -0.359375 0.453126 -0.710937 0.917969 -1.058594 1.386719 h 80.585938 c -0.347657 -0.46875 -0.699219 -0.933593 -1.058594 -1.386719 z m -1.496094 1.988282 c -0.324219 0.457031 -0.640625 0.921875 -0.953125 1.390625 h 83.363282 c -0.308594 -0.46875 -0.625 -0.933594 -0.949219 -1.390625 z m -1.347656 1.992187 c -0.292969 0.457031 -0.578125 0.917969 -0.855469 1.386719 h 85.871094 c -0.28125 -0.46875 -0.566406 -0.929688 -0.863281 -1.386719 z m -1.210937 1.992188 c -0.265626 0.457031 -0.523438 0.921875 -0.773438 1.386719 h 88.125 c -0.25 -0.464844 -0.507812 -0.929688 -0.769531 -1.386719 z m -1.089844 1.992187 c -0.238282 0.460938 -0.472656 0.921875 -0.695313 1.386719 h 90.148438 c -0.222657 -0.464844 -0.457031 -0.925781 -0.691407 -1.386719 z m -0.980469 1.992188 c -0.210937 0.460937 -0.417969 0.921875 -0.617187 1.386718 h 91.953124 c -0.199218 -0.464843 -0.40625 -0.925781 -0.617187 -1.386718 z m -0.871094 1.992187 c -0.1875 0.457031 -0.371093 0.921875 -0.546875 1.386719 h 93.558594 c -0.175781 -0.464844 -0.363281 -0.929688 -0.550781 -1.386719 z m -0.769531 1.992188 c -0.167969 0.457031 -0.328125 0.917969 -0.484375 1.382812 h 94.964844 c -0.152344 -0.464843 -0.3125 -0.925781 -0.480469 -1.382812 z m -0.675781 1.988281 c -0.148438 0.460938 -0.285157 0.925781 -0.417969 1.386719 h 96.1875 c -0.132812 -0.460938 -0.269531 -0.925781 -0.417969 -1.386719 z m -0.585938 1.992188 c -0.125 0.460937 -0.242187 0.925781 -0.355469 1.390624 h 97.234376 c -0.113282 -0.464843 -0.230469 -0.929687 -0.355469 -1.390624 z m -0.496093 1.992187 c -0.105469 0.460937 -0.203126 0.925781 -0.292969 1.390625 h 98.101562 c -0.089843 -0.464844 -0.1875 -0.929688 -0.292969 -1.390625 z m -0.410157 1.992187 c -0.085937 0.460938 -0.164062 0.921876 -0.238281 1.386719 h 98.8125 c -0.074219 -0.464843 -0.152344 -0.925781 -0.238281 -1.386719 z m -0.328125 1.992188 c -0.0625 0.460938 -0.125 0.921875 -0.175781 1.386719 h 99.347656 c -0.054687 -0.464844 -0.117187 -0.925781 -0.183593 -1.386719 z m -0.242187 1.988281 c -0.046875 0.464844 -0.089844 0.925781 -0.121094 1.390625 h 99.722656 c -0.035156 -0.464844 -0.074219 -0.925781 -0.125 -1.390625 z m -0.164063 1.992188 c -0.027344 0.464843 -0.050781 0.925781 -0.066406 1.390625 h 99.9375 c -0.015625 -0.464844 -0.035156 -0.925782 -0.0625 -1.390625 z m -0.082031 1.996093 c -0.011719 0.371094 -0.015625 0.746094 -0.015625 1.117188 v 0.269531 h 100 c 0 -0.089843 0 -0.179687 0 -0.269531 c 0 -0.371094 -0.003906 -0.746094 -0.011719 -1.117188 z m -0.007813 1.992188 c 0.007813 0.460938 0.023438 0.921875 0.042969 1.386719 h 99.898438 c 0.019531 -0.464844 0.035156 -0.925781 0.042969 -1.386719 z m 0.074219 1.988281 c 0.027344 0.464844 0.058594 0.925781 0.101563 1.386719 h 99.636718 c 0.039063 -0.460938 0.070313 -0.921875 0.097657 -1.386719 z m 0.152344 1.992188 c 0.046875 0.464843 0.101563 0.925781 0.15625 1.386719 h 99.21875 c 0.058594 -0.460938 0.109375 -0.921876 0.152344 -1.386719 z m 0.238281 1.992187 c 0.0625 0.464844 0.132813 0.925782 0.210938 1.386719 h 98.632812 c 0.078125 -0.460937 0.148438 -0.921875 0.210938 -1.386719 z m 0.316406 1.992188 c 0.082032 0.464844 0.171876 0.699218 0.269532 1.160156 h 97.882812 c 0.097656 -0.460938 0.1875 -0.695312 0.269532 -1.160156 z m 0.398438 1.992187 c 0.101562 0.464844 0.210938 0.925781 0.328125 1.386719 h 96.96875 c 0.117187 -0.460938 0.226563 -0.921875 0.328125 -1.386719 z m 0.484375 1.992188 c 0.125 0.460937 0.253906 0.925781 0.390625 1.386719 h 95.875 c 0.136719 -0.460938 0.265625 -0.925782 0.386719 -1.386719 z m 0.574219 1.988281 c 6.492187 20.925781 25.847656 35.1875 47.753906 35.1875 s 41.261719 -14.261719 47.753906 -35.1875 z m 0 0" fill="url(#a)"/>
    <path d="m 53.171875 60.300781 h 3.59375 c 0.664063 0 1.199219 0.535157 1.199219 1.199219 v 21.5625 c 0 0.664062 -0.535156 1.199219 -1.199219 1.199219 h -3.59375 c -0.664063 0 -1.195313 -0.535157 -1.195313 -1.199219 v -21.5625 c 0 -0.664062 0.53125 -1.199219 1.195313 -1.199219 z m 0 0" fill="#865e3c"/>
    <path d="m 56.6875 60.394531 c 0.332031 0 0.597656 0.265625 0.597656 0.597657 v 13.179687 c 0 0.332031 -0.265625 0.597656 -0.597656 0.597656 s -0.597656 -0.265625 -0.597656 -0.597656 v -13.179687 c 0 -0.332032 0.265625 -0.597657 0.597656 -0.597657 z m 0 0" fill="#63452c"/>
    <path d="m 56.6875 76.152344 c 0.332031 0 0.597656 0.269531 0.597656 0.597656 v 1.5 c 0 0.332031 -0.265625 0.597656 -0.597656 0.597656 s -0.597656 -0.265625 -0.597656 -0.597656 v -1.5 c 0 -0.328125 0.265625 -0.597656 0.597656 -0.597656 z m 0 0" fill="#63452c"/>
    <path d="m 54.972656 19.410156 l -10.15625 20.304688 h 2.59375 l -5.980468 11.949218 h 3.585937 l -6.96875 13.9375 h 33.847656 l -6.96875 -13.9375 h 3.582031 l -5.976562 -11.949218 h 2.589844 z m 0 0" fill="#1b744b"/>
    <path d="m 54.820312 19.3125 c -2.347656 4.695312 -5.882812 11.761719 -10.152343 20.304688 c -0.03125 0.058593 -0.03125 0.136718 0 0.195312 c 0.03125 0.0625 0.085937 0.101562 0.148437 0.101562 h 2.292969 c -1.871094 3.742188 -3.835937 7.667969 -5.828125 11.652344 c -0.03125 0.0625 -0.03125 0.136719 0 0.199219 s 0.089844 0.097656 0.148438 0.097656 h 3.289062 c -2.339844 4.683594 -4.640625 9.277344 -6.820312 13.640625 c -0.03125 0.058594 -0.03125 0.136719 0 0.195313 c 0.03125 0.0625 0.089843 0.101562 0.148437 0.101562 h 16.921875 h 16.921875 c 0.0625 0 0.121094 -0.039062 0.152344 -0.101562 c 0.03125 -0.058594 0.03125 -0.136719 0 -0.195313 c -2.179688 -4.363281 -4.480469 -8.957031 -6.820313 -13.640625 h 3.285156 c 0.0625 0 0.117188 -0.035156 0.148438 -0.097656 s 0.03125 -0.136719 0 -0.199219 c -1.992188 -3.984375 -3.957031 -7.910156 -5.828125 -11.652344 h 2.292969 c 0.0625 0 0.121094 -0.039062 0.152344 -0.101562 c 0.03125 -0.058594 0.03125 -0.136719 0 -0.195312 c -4.269532 -8.542969 -7.804688 -15.609376 -10.152344 -20.304688 z m 0 0.195312 c 2.320313 4.644532 5.800782 11.601563 10.003907 20.007813 c -0.703125 0 -1.476563 0 -2.292969 0 c -0.0625 0 -0.117188 0.039063 -0.148438 0.101563 c -0.03125 0.058593 -0.03125 0.136718 0 0.195312 c 1.867188 3.738281 3.832032 7.664062 5.828126 11.65625 c -1.09375 0 -2.199219 0 -3.285157 0 c -0.0625 0 -0.117187 0.035156 -0.148437 0.097656 s -0.03125 0.136719 0 0.199219 c 2.335937 4.675781 4.636718 9.273437 6.816406 13.636719 c -5.730469 0 -11.292969 0 -16.625 0 c -5.328125 0 -10.890625 0 -16.621094 0 c 2.179688 -4.363282 4.480469 -8.960938 6.816406 -13.636719 c 0.03125 -0.0625 0.03125 -0.136719 0 -0.199219 s -0.085937 -0.097656 -0.148437 -0.097656 c -1.085937 0 -2.191406 0 -3.285156 0 c 1.996093 -3.992188 3.957031 -7.917969 5.828125 -11.65625 c 0.03125 -0.058594 0.03125 -0.136719 0 -0.195312 c -0.03125 -0.0625 -0.089844 -0.101563 -0.152344 -0.101563 c -0.8125 0 -1.585938 0 -2.292969 0 c 4.207031 -8.40625 7.683594 -15.363281 10.007813 -20.007813 z m 0 0" fill="#1b744b"/>
    <path d="m 54.96875 18.339844 l -10.152344 20.304687 h 2.589844 l -5.972656 11.949219 h 3.582031 l -6.96875 13.9375 h 33.84375 l -6.964844 -13.9375 h 3.582031 l -5.976562 -11.949219 h 2.589844 z m 0 0" fill="url(#c)"/>
    <path d="m 74.128906 67.410156 h 3.59375 c 0.664063 0 1.199219 0.535156 1.199219 1.199219 v 21.566406 c 0 0.660157 -0.535156 1.195313 -1.199219 1.195313 h -3.59375 c -0.664062 0 -1.195312 -0.535156 -1.195312 -1.195313 v -21.566406 c 0 -0.664063 0.53125 -1.199219 1.195312 -1.199219 z m 0 0" fill="#865e3c"/>
    <path d="m 77.535156 69.402344 c 0.332032 0 0.601563 0.269531 0.601563 0.601562 v 13.175782 c 0 0.332031 -0.269531 0.601562 -0.601563 0.601562 c -0.332031 0 -0.597656 -0.269531 -0.597656 -0.601562 v -13.175782 c 0 -0.332031 0.265625 -0.601562 0.597656 -0.601562 z m 0 0" fill="#63452c"/>
    <path d="m 77.535156 85.019531 c 0.332032 0 0.601563 0.265625 0.601563 0.597657 v 1.5 c 0 0.332031 -0.269531 0.597656 -0.601563 0.597656 c -0.332031 0 -0.597656 -0.265625 -0.597656 -0.597656 v -1.5 c 0 -0.332032 0.265625 -0.597657 0.597656 -0.597657 z m 0 0" fill="#63452c"/>
    <path d="m 75.925781 26.519531 l -10.152343 20.304688 h 2.589843 l -5.976562 11.953125 h 3.585937 l -6.96875 13.933594 h 33.84375 l -6.964844 -13.933594 h 3.582032 l -5.976563 -11.953125 h 2.589844 z m 0 0" fill="#1b744b"/>
    <path d="m 75.925781 25.449219 l -10.152343 20.304687 h 2.59375 l -5.976563 11.953125 h 3.582031 l -6.96875 13.933594 h 33.84375 l -6.964844 -13.933594 h 3.582032 l -5.976563 -11.953125 h 2.59375 z m 0 0" fill="url(#d)"/>
    <path d="m 18.640625 78.203125 h 92.761719 c 1.96875 0 3.566406 1.789063 3.566406 3.996094 v 33.964843 c 0 2.207032 -1.597656 3.996094 -3.566406 3.996094 h -92.761719 c -1.972656 0 -3.570313 -1.789062 -3.570313 -3.996094 v -33.964843 c 0 -2.207031 1.597657 -3.996094 3.570313 -3.996094 z m 0 0" fill="url(#e)"/>
    <path d="m 18.636719 75.992188 h 92.765625 c 1.96875 0 3.566406 1.789062 3.566406 3.996093 v 31.96875 c 0 2.207031 -1.597656 3.996094 -3.566406 3.996094 h -92.765625 c -1.96875 0 -3.566407 -1.789063 -3.566407 -3.996094 v -31.96875 c 0 -2.207031 1.597657 -3.996093 3.566407 -3.996093 z m 0 0" fill="#241f31"/>
    <path d="m 20.066406 80.277344 h 7.992188 c 0.550781 0 1 0.445312 1 1 v 2 c 0 0.550781 -0.449219 0.996094 -1 0.996094 h -7.992188 c -0.554687 0 -1 -0.445313 -1 -0.996094 v -2 c 0 -0.554688 0.445313 -1 1 -1 z m 0 0"/>
    <path d="m 20.066406 79.988281 h 7.992188 c 0.550781 0 1 0.445313 1 1 v 2 c 0 0.550781 -0.449219 0.996094 -1 0.996094 h -7.992188 c -0.554687 0 -1 -0.445313 -1 -0.996094 v -2 c 0 -0.554687 0.445313 -1 1 -1 z m 0 0" fill="#3d3846"/>
    <path d="m 20.066406 86.273438 h 7.992188 c 0.550781 0 1 0.445312 1 1 v 1.996093 c 0 0.554688 -0.449219 1 -1 1 h -7.992188 c -0.554687 0 -1 -0.445312 -1 -1 v -1.996093 c 0 -0.554688 0.445313 -1 1 -1 z m 0 0"/>
    <path d="m 20.066406 85.984375 h 7.992188 c 0.550781 0 1 0.445313 1 0.996094 v 2 c 0 0.554687 -0.449219 1 -1 1 h -7.992188 c -0.554687 0 -1 -0.445313 -1 -1 v -2 c 0 -0.550781 0.445313 -0.996094 1 -0.996094 z m 0 0" fill="#3d3846"/>
    <path d="m 20.066406 92.265625 h 7.992188 c 0.550781 0 1 0.445313 1 1 v 1.996094 c 0 0.554687 -0.449219 1 -1 1 h -7.992188 c -0.554687 0 -1 -0.445313 -1 -1 v -1.996094 c 0 -0.554687 0.445313 -1 1 -1 z m 0 0"/>
    <path d="m 20.066406 91.976562 h 7.992188 c 0.550781 0 1 0.445313 1 1 v 1.996094 c 0 0.554688 -0.449219 1 -1 1 h -7.992188 c -0.554687 0 -1 -0.445312 -1 -1 v -1.996094 c 0 -0.554687 0.445313 -1 1 -1 z m 0 0" fill="#3d3846"/>
    <path d="m 44.042969 79.988281 h 45.949219 c 0.554687 0 1 0.445313 1 1 v 25.972657 c 0 0.554687 -0.445313 1 -1 1 h -45.949219 c -0.554688 0 -1 -0.445313 -1 -1 v -25.972657 c 0 -0.554687 0.445312 -1 1 -1 z m 0 0" fill="#9a9996"/>
    <path d="m 44.042969 80.488281 h 45.949219 c 0.554687 0 1 0.4375 1 0.980469 v 25.511719 c 0 0.542969 -0.445313 0.980469 -1 0.980469 h -45.949219 c -0.554688 0 -1 -0.4375 -1 -0.980469 v -25.511719 c 0 -0.542969 0.445312 -0.980469 1 -0.980469 z m 0 0" fill-opacity="0.733333"/>
    <path d="m 112.648438 103.820312 c 0 5.519532 -4.472657 9.992188 -9.988282 9.992188 c -5.519531 0 -9.992187 -4.472656 -9.992187 -9.992188 c 0 -5.515624 4.472656 -9.988281 9.992187 -9.988281 c 5.515625 0 9.988282 4.472657 9.988282 9.988281 z m 0 0" fill="url(#f)"/>
    <path d="m 112.648438 102.484375 c 0 5.515625 -4.472657 9.988281 -9.988282 9.988281 c -5.519531 0 -9.992187 -4.472656 -9.992187 -9.988281 s 4.472656 -9.988281 9.992187 -9.988281 c 5.515625 0 9.988282 4.472656 9.988282 9.988281 z m 0 0" fill="#3d3846"/>
    <path d="m 108.972656 107.960938 c 0 1.101562 -0.894531 1.996093 -1.996094 1.996093 c -1.101562 0 -1.996093 -0.894531 -1.996093 -1.996093 c 0 -1.105469 0.894531 -2 1.996093 -2 c 1.101563 0 1.996094 0.894531 1.996094 2 z m 0 0" fill="#9a9996"/>
    <path d="m 108.964844 108.015625 c 0 1.09375 -0.886719 1.980469 -1.980469 1.980469 s -1.980469 -0.886719 -1.980469 -1.980469 s 0.886719 -1.980469 1.980469 -1.980469 s 1.980469 0.886719 1.980469 1.980469 z m 0 0"/>
    <path d="m 20.066406 98.261719 h 7.992188 c 0.550781 0 1 0.445312 1 0.996093 v 2 c 0 0.554688 -0.449219 1 -1 1 h -7.992188 c -0.554687 0 -1 -0.445312 -1 -1 v -2 c 0 -0.550781 0.445313 -0.996093 1 -0.996093 z m 0 0"/>
    <path d="m 20.066406 97.972656 h 7.992188 c 0.550781 0 1 0.445313 1 0.996094 v 2 c 0 0.550781 -0.449219 1 -1 1 h -7.992188 c -0.554687 0 -1 -0.449219 -1 -1 v -2 c 0 -0.550781 0.445313 -0.996094 1 -0.996094 z m 0 0" fill="#3d3846"/>
    <path d="m 45.039062 109.730469 h 7.992188 c 0.554688 0 1 0.445312 1 1 v 1.996093 c 0 0.554688 -0.445312 1 -1 1 h -7.992188 c -0.550781 0 -0.996093 -0.445312 -0.996093 -1 v -1.996093 c 0 -0.554688 0.445312 -1 0.996093 -1 z m 0 0"/>
    <path d="m 45.039062 109.441406 h 7.992188 c 0.554688 0 1 0.445313 1 1 v 1.996094 c 0 0.554688 -0.445312 1 -1 1 h -7.992188 c -0.550781 0 -0.996093 -0.445312 -0.996093 -1 v -1.996094 c 0 -0.554687 0.445312 -1 0.996093 -1 z m 0 0" fill="#3d3846"/>
    <path d="m 57.027344 109.730469 h 7.992187 c 0.554688 0 1 0.445312 1 1 v 1.996093 c 0 0.554688 -0.445312 1 -1 1 h -7.992187 c -0.554688 0 -1 -0.445312 -1 -1 v -1.996093 c 0 -0.554688 0.445312 -1 1 -1 z m 0 0"/>
    <path d="m 57.027344 109.441406 h 7.992187 c 0.554688 0 1 0.445313 1 1 v 1.996094 c 0 0.554688 -0.445312 1 -1 1 h -7.992187 c -0.554688 0 -1 -0.445312 -1 -1 v -1.996094 c 0 -0.554687 0.445312 -1 1 -1 z m 0 0" fill="#3d3846"/>
    <path d="m 69.015625 109.730469 h 7.992187 c 0.554688 0 1 0.445312 1 1 v 1.996093 c 0 0.554688 -0.445312 1 -1 1 h -7.992187 c -0.554687 0 -1 -0.445312 -1 -1 v -1.996093 c 0 -0.554688 0.445313 -1 1 -1 z m 0 0"/>
    <path d="m 69.015625 109.441406 h 7.992187 c 0.554688 0 1 0.445313 1 1 v 1.996094 c 0 0.554688 -0.445312 1 -1 1 h -7.992187 c -0.554687 0 -1 -0.445312 -1 -1 v -1.996094 c 0 -0.554687 0.445313 -1 1 -1 z m 0 0" fill="#3d3846"/>
    <path d="m 81.003906 109.730469 h 7.992188 c 0.550781 0 0.996094 0.445312 0.996094 1 v 1.996093 c 0 0.554688 -0.445313 1 -0.996094 1 h -7.992188 c -0.554687 0 -1 -0.445312 -1 -1 v -1.996093 c 0 -0.554688 0.445313 -1 1 -1 z m 0 0"/>
    <path d="m 81.003906 109.441406 h 7.992188 c 0.550781 0 0.996094 0.445313 0.996094 1 v 1.996094 c 0 0.554688 -0.445313 1 -0.996094 1 h -7.992188 c -0.554687 0 -1 -0.445312 -1 -1 v -1.996094 c 0 -0.554687 0.445313 -1 1 -1 z m 0 0" fill="#3d3846"/>
    <path d="m 40.902344 104.519531 c 0 2.207031 -1.789063 3.996094 -3.996094 3.996094 s -3.996094 -1.789063 -3.996094 -3.996094 s 1.789063 -3.996093 3.996094 -3.996093 s 3.996094 1.789062 3.996094 3.996093 z m 0 0" fill-opacity="0.733333"/>
    <path d="m 27.96875 108.976562 c 0 2.207032 -1.789062 3.996094 -3.996094 3.996094 c -2.207031 0 -3.996094 -1.789062 -3.996094 -3.996094 c 0 -2.207031 1.789063 -3.996093 3.996094 -3.996093 c 2.207032 0 3.996094 1.789062 3.996094 3.996093 z m 0 0" fill-opacity="0.733333"/>
    <path d="m 40.902344 84.003906 c 0 2.207032 -1.789063 3.996094 -3.996094 3.996094 s -3.996094 -1.789062 -3.996094 -3.996094 c 0 -2.207031 1.789063 -3.996094 3.996094 -3.996094 s 3.996094 1.789063 3.996094 3.996094 z m 0 0" fill-opacity="0.733333"/>
    <path d="m 40.152344 84.003906 c 0 1.792969 -1.453125 3.246094 -3.246094 3.246094 s -3.246094 -1.453125 -3.246094 -3.246094 c 0 -1.792968 1.453125 -3.246094 3.246094 -3.246094 s 3.246094 1.453126 3.246094 3.246094 z m 0 0" fill="#3d3846"/>
    <path d="m 100.660156 84.003906 c 0 2.207032 -1.789062 3.996094 -3.996094 3.996094 c -2.207031 0 -3.996093 -1.789062 -3.996093 -3.996094 c 0 -2.207031 1.789062 -3.996094 3.996093 -3.996094 c 2.207032 0 3.996094 1.789063 3.996094 3.996094 z m 0 0" fill-opacity="0.733333"/>
    <path d="m 99.914062 84.003906 c 0 1.792969 -1.457031 3.246094 -3.25 3.246094 c -1.792968 0 -3.246093 -1.453125 -3.246093 -3.246094 c 0 -1.792968 1.453125 -3.246094 3.246093 -3.246094 c 1.792969 0 3.25 1.453126 3.25 3.246094 z m 0 0" fill="#3d3846"/>
    <path d="m 40.152344 104.519531 c 0 1.792969 -1.453125 3.246094 -3.246094 3.246094 s -3.246094 -1.453125 -3.246094 -3.246094 s 1.453125 -3.25 3.246094 -3.25 s 3.246094 1.457031 3.246094 3.25 z m 0 0" fill="#3d3846"/>
    <path d="m 44.015625 96.0625 h 45.953125 c 0.550781 0 0.996094 0.445312 0.996094 1 v 9.992188 c 0 0.550781 -0.445313 0.996093 -0.996094 0.996093 h -45.953125 c -0.554687 0 -1 -0.445312 -1 -0.996093 v -9.992188 c 0 -0.554688 0.445313 -1 1 -1 z m 0 0" fill="#1a5fb4"/>
    <path d="m 93.167969 92.976562 h 2 c 0.273437 0 0.5 0.222657 0.5 0.5 c 0 0.273438 -0.226563 0.5 -0.5 0.5 h -2 c -0.273438 0 -0.5 -0.226562 -0.5 -0.5 c 0 -0.277343 0.226562 -0.5 0.5 -0.5 z m 0 0" fill="#f8e45c"/>
    <path d="m 43.042969 95.472656 h 47.949219 v 7.992188 h -47.949219 z m 0 0" fill="#1a5fb4"/>
    <path d="m 43.042969 95.472656 h 47.949219 v 0.25 h -47.949219 z m 0 0" fill="#f9f06b"/>
    <g fill="#ffffff">
        <path d="m 53.425781 83.585938 h 6.242188 v 5.351562 h -6.242188 z m 0 0" fill-opacity="0.2"/>
        <path d="m 62.382812 83.574219 h 8.027344 v 5.351562 h -8.027344 z m 0 0" fill-opacity="0.2"/>
        <path d="m 73.050781 83.648438 h 6.347657 v 5.351562 h -6.347657 z m 0 0" fill-opacity="0.2"/>
        <path d="m 71.261719 88.035156 h 0.886719 v 0.890625 h -0.886719 z m 0 0" fill-opacity="0.4"/>
        <path d="m 60.558594 88.035156 h 0.886718 v 0.890625 h -0.886718 z m 0 0" fill-opacity="0.4"/>
    </g>
</svg>
